<?xml version="1.0" standalone="no"?>
<!DOCTYPE svg PUBLIC "-//W3C//DTD SVG 20010904//EN"
 "http://www.w3.org/TR/2001/REC-SVG-20010904/DTD/svg10.dtd">
<svg version="1.0" xmlns="http://www.w3.org/2000/svg"
 width="512.000000pt" height="512.000000pt" viewBox="0 0 512.000000 512.000000"
 preserveAspectRatio="xMidYMid meet">
<metadata>
Created by potrace 1.16, written by Peter Selinger 2001-2019
</metadata>
<g transform="translate(0.000000,512.000000) scale(0.100000,-0.100000)"
fill="#000000" stroke="none">
<path d="M2406 4784 c-96 -17 -222 -67 -302 -119 -95 -63 -222 -198 -274 -292
-30 -56 -50 -81 -59 -78 -8 3 -55 13 -105 21 -304 53 -633 -82 -812 -333 -239
-333 -210 -776 69 -1070 85 -89 193 -162 301 -204 131 -50 200 -59 479 -59
l252 -1 34 -50 c104 -152 291 -263 490 -290 242 -33 516 90 652 291 l34 49
251 1 c265 0 323 6 444 46 222 72 425 266 510 486 144 373 7 798 -326 1011
-207 132 -453 168 -689 102 -17 -4 -27 8 -65 77 -60 110 -203 255 -310 315
-179 100 -374 133 -574 97z m359 -178 c199 -64 356 -212 430 -407 39 -100 62
-107 192 -62 68 23 93 27 203 27 111 0 134 -3 205 -28 117 -40 180 -80 271
-170 90 -91 140 -171 176 -286 34 -111 32 -283 -5 -395 -62 -187 -184 -326
-362 -411 -116 -56 -176 -64 -487 -64 -188 0 -285 -4 -302 -12 -14 -6 -40 -36
-57 -67 -65 -114 -207 -220 -339 -252 -68 -16 -200 -16 -260 0 -130 37 -247
123 -324 241 -25 38 -55 74 -65 80 -12 6 -127 10 -303 10 -318 0 -376 8 -493
64 -178 85 -300 224 -362 411 -37 112 -39 284 -5 395 36 115 86 195 176 286
91 90 154 130 271 170 71 25 94 28 205 28 110 0 135 -4 203 -27 130 -45 153
-38 192 62 83 219 262 372 500 427 90 21 241 12 340 -20z M2505 4455 c-54 -53
-15 -135 63 -135 22 0 69 -9 105 -20 108 -34 196 -127 236 -252 23 -69 90 -90
138 -42 22 22 24 31 19 67 -3 23 -23 76 -43 117 -67 137 -195 240 -345 275
-96 22 -144 20 -173 -10z M3553 4001 c-46 -20 -57 -88 -20 -125 17 -17 39 -24
87 -29 173 -19 309 -154 327 -327 5 -48 12 -70 29 -87 28 -28 73 -30 105 -4
21 17 24 27 23 88 -2 201 -147 393 -348 463 -68 23 -172 34 -203 21z M3033
3868 c-35 -17 -48 -60 -33 -114 23 -80 95 -110 145 -59 30 29 31 59 6 117 -25
59 -69 80 -118 56z M1565 2535 c-14 -13 -25 -33 -25 -45 0 -23 640 -1868 675
-1947 66 -147 240 -239 401 -213 120 20 226 95 277 197 14 26 174 477 356
1002 306 879 331 956 320 983 -21 51 -90 66 -125 27 -10 -12 -42 -87 -71 -167
-29 -81 -52 -139 -52 -129 -1 27 -47 67 -76 67 -14 0 -171 -58 -347 -130 -177
-71 -329 -130 -337 -130 -9 0 -137 52 -285 115 -147 63 -281 115 -296 115 -62
0 -99 -73 -62 -120 13 -17 85 -52 221 -109 110 -47 201 -88 201 -92 0 -3 -38
-21 -85 -39 l-86 -33 -77 31 c-92 38 -103 39 -138 9 -35 -30 -37 -77 -5 -111
17 -18 22 -33 19 -62 -2 -32 -28 34 -141 366 -96 283 -143 410 -158 423 -30
25 -75 22 -104 -8z m1690 -511 c-30 -85 -55 -159 -55 -162 -1 -4 -7 7 -14 24
-8 17 -26 36 -44 43 -26 11 -38 9 -108 -18 l-79 -31 -87 37 c-48 21 -88 40
-88 43 0 3 98 43 217 90 120 47 238 95 263 107 25 12 46 22 47 22 1 1 -22 -69
-52 -155z m-599 -193 c82 -37 87 -41 64 -49 -14 -6 -56 -22 -93 -37 l-68 -28
-90 40 -91 40 89 36 c48 20 91 36 94 37 4 0 46 -18 95 -39z m511 -57 c-9 -29
-12 -33 -18 -18 -4 12 0 26 9 37 21 24 22 22 9 -19z m-1126 -104 c14 0 49 9
76 21 l51 21 86 -38 c48 -20 84 -40 79 -45 -17 -16 -165 -69 -194 -69 -43 0
-65 -15 -79 -52 l-12 -33 -34 100 c-52 153 -50 141 -23 116 12 -11 35 -21 50
-21z m1065 3 l32 16 -36 -104 c-36 -101 -37 -102 -49 -74 -13 32 -44 48 -89
47 -27 0 -191 68 -183 76 2 2 42 20 88 39 l84 35 60 -25 c57 -23 63 -24 93
-10z m-448 -170 l83 -37 -92 -36 -92 -37 -66 29 c-36 17 -77 34 -91 40 -23 9
-20 12 55 43 44 18 89 34 100 34 11 1 57 -15 103 -36z m-520 -113 c19 0 180
-66 195 -80 5 -4 -24 -20 -63 -36 -75 -29 -100 -52 -101 -94 0 -18 -88 206
-89 228 0 1 9 -2 19 -8 11 -5 28 -10 39 -10z m864 -95 c-37 -105 -37 -105 -54
-82 -10 13 -52 39 -93 57 -42 18 -72 36 -68 40 15 13 168 70 188 70 11 0 27 5
35 10 29 19 29 9 -8 -95z m-285 -140 c83 -36 157 -65 165 -65 7 0 24 8 38 17
23 16 23 16 16 -3 -4 -10 -43 -121 -86 -246 -93 -267 -97 -275 -151 -321 -88
-76 -219 -67 -301 20 -33 35 -38 45 -136 328 -44 127 -83 238 -88 248 -5 14 0
12 19 -7 14 -14 34 -26 45 -26 10 0 83 27 162 59 80 33 150 60 155 60 6 1 79
-28 162 -64z"/>
</g>
</svg>
