<?xml version="1.0" standalone="no"?>
<!DOCTYPE svg PUBLIC "-//W3C//DTD SVG 20010904//EN"
 "http://www.w3.org/TR/2001/REC-SVG-20010904/DTD/svg10.dtd">
<svg version="1.0" xmlns="http://www.w3.org/2000/svg"
 width="512.000000pt" height="512.000000pt" viewBox="0 0 512.000000 512.000000"
 preserveAspectRatio="xMidYMid meet">
<metadata>
Created by potrace 1.16, written by Peter Selinger 2001-2019
</metadata>
<g transform="translate(0.000000,512.000000) scale(0.100000,-0.100000)"
fill="#000000" stroke="none">
<path d="M3014 4541 c-21 -15 -268 -211 -549 -435 -280 -224 -702 -560 -936
-747 -235 -186 -430 -346 -433 -355 -3 -9 -6 -267 -6 -575 l0 -559 -444 0
-445 0 -20 -26 c-12 -15 -21 -35 -21 -46 0 -35 170 -420 216 -489 60 -91 151
-171 249 -219 143 -71 158 -73 558 -78 l357 -4 0 -117 c0 -150 16 -208 74
-265 79 -79 36 -76 946 -76 900 0 868 -2 939 69 64 64 75 99 79 253 l4 136
356 4 c399 5 413 7 557 77 97 48 189 128 248 219 47 71 217 456 217 490 0 12
-11 34 -24 49 l-24 28 -441 3 -440 3 -4 632 c-4 678 -3 654 -58 841 -44 148
-151 368 -252 521 -72 107 -188 247 -327 390 -74 78 -169 178 -210 223 -86 94
-103 99 -166 53z m306 -436 c188 -196 305 -358 394 -546 72 -153 122 -310 144
-451 l9 -58 -724 0 c-397 0 -723 2 -723 4 0 2 15 14 33 25 19 11 46 44 61 72
24 44 28 59 24 114 -13 209 -277 278 -391 102 -64 -99 -33 -237 67 -298 31
-19 29 -19 -393 -19 l-424 0 279 222 c153 122 513 409 799 637 286 227 536
426 554 441 l35 27 75 -81 c42 -44 123 -130 181 -191z m-962 -811 c24 -17 30
-62 10 -82 -29 -29 -98 -1 -98 40 0 21 34 58 53 58 7 0 23 -7 35 -16z m651
-424 c-50 -26 -98 -77 -120 -125 -15 -32 -19 -66 -19 -175 0 -150 -10 -202
-43 -225 -32 -22 -81 -19 -113 8 -23 20 -28 33 -34 105 -6 66 -12 89 -35 122
-99 142 -325 123 -396 -35 -15 -33 -19 -67 -19 -194 0 -133 -3 -160 -20 -196
-41 -85 -147 -105 -218 -41 l-37 34 -5 264 c-5 246 -7 266 -28 305 -41 77
-119 123 -212 123 -126 0 -217 -78 -235 -203 -10 -63 -31 -77 -117 -77 -105 0
-108 6 -108 185 l0 145 898 0 c891 -1 897 -1 861 -20z m629 -207 c-3 -248 -6
-260 -61 -293 -60 -37 -142 -18 -172 40 -10 20 -15 59 -15 129 0 180 -35 265
-132 320 l-53 31 218 0 219 0 -4 -227z m232 -278 l0 -505 -1310 0 -1310 0 0
263 0 262 113 0 c101 0 116 2 157 25 58 33 98 91 109 158 10 66 33 92 80 92
77 0 81 -14 81 -297 0 -229 1 -240 24 -289 31 -66 86 -120 153 -151 46 -21 66
-25 131 -21 125 6 215 66 265 177 18 40 22 70 25 216 2 94 8 175 14 182 17 21
67 26 92 10 19 -13 24 -27 29 -86 13 -153 111 -251 252 -251 99 0 178 49 222
137 25 52 27 68 32 218 5 141 9 166 25 184 23 26 72 36 108 22 52 -20 62 -52
68 -205 6 -156 14 -182 79 -249 52 -56 104 -79 186 -85 103 -6 196 38 249 119
46 69 56 133 56 366 l0 213 35 0 35 0 0 -505z m880 -680 c0 -22 -109 -265
-138 -306 -76 -111 -212 -198 -342 -219 -90 -14 -3330 -14 -3420 0 -130 21
-266 108 -342 219 -29 41 -138 284 -138 306 0 7 697 10 2190 10 1493 0 2190
-3 2190 -10z m-1332 -821 c-3 -124 -3 -126 -31 -150 l-28 -24 -799 0 -799 0
-28 24 c-28 24 -28 26 -31 150 l-4 126 862 0 862 0 -4 -126z M2862 4084 c-113
-56 -158 -198 -100 -309 37 -70 126 -125 201 -125 80 0 169 56 207 131 23 44
27 142 8 186 -55 126 -195 178 -316 117z m148 -152 c48 -38 16 -122 -46 -122
-60 0 -89 83 -42 123 26 22 60 22 88 -1z M3145 3574 c-58 -20 -106 -64 -140
-125 -54 -100 -35 -228 46 -307 171 -168 449 -53 449 186 0 76 -19 124 -68
176 -75 78 -187 106 -287 70z m166 -173 c65 -65 18 -181 -73 -181 -39 0 -85
35 -98 75 -34 102 95 182 171 106z M1097 1440 c-59 -18 -77 -88 -34 -128 20
-19 35 -22 104 -22 76 0 83 2 102 26 27 35 27 66 -2 99 -18 22 -33 27 -82 30
-33 3 -73 0 -88 -5z M1435 1443 c-62 -15 -86 -90 -42 -131 l23 -22 553 0 c341
0 559 4 571 10 51 28 38 118 -20 139 -33 11 -1040 15 -1085 4z"/>
</g>
</svg>
