<?xml version="1.0" standalone="no"?>
<!DOCTYPE svg PUBLIC "-//W3C//DTD SVG 20010904//EN"
 "http://www.w3.org/TR/2001/REC-SVG-20010904/DTD/svg10.dtd">
<svg version="1.0" xmlns="http://www.w3.org/2000/svg"
 width="512.000000pt" height="512.000000pt" viewBox="0 0 512.000000 512.000000"
 preserveAspectRatio="xMidYMid meet">
<metadata>
Created by potrace 1.16, written by Peter Selinger 2001-2019
</metadata>
<g transform="translate(0.000000,512.000000) scale(0.100000,-0.100000)"
fill="#000000" stroke="none">
<path d="M1253 4090 c-255 -21 -513 -112 -731 -257 -114 -75 -259 -220 -300
-299 -84 -162 -83 -337 2 -507 l34 -67 -33 -50 c-64 -94 -65 -205 -4 -289 l29
-40 -21 -36 c-17 -28 -20 -47 -17 -90 8 -94 76 -154 213 -190 75 -19 166 -19
278 0 49 9 98 13 110 9 12 -3 56 -41 97 -84 165 -170 346 -192 531 -65 67 46
84 42 166 -36 90 -87 153 -113 273 -113 82 -1 103 3 151 25 31 15 74 43 96 63
64 58 88 57 159 -3 32 -28 84 -64 114 -79 49 -24 66 -27 155 -27 88 0 107 3
157 27 32 15 79 47 106 72 70 65 95 68 161 16 92 -73 152 -95 256 -95 81 0 97
3 158 32 40 19 87 52 115 81 78 80 102 85 167 37 86 -65 193 -92 290 -74 102
18 184 71 276 177 20 22 49 44 63 48 15 3 64 -1 109 -10 125 -25 253 -18 338
18 49 21 69 -229 23 -291 -11 -15 -36 -38 -54 -51 l-33 -22 -2132 0 -2132 0
-33 23 c-49 33 -70 75 -77 158 -7 79 -25 109 -67 109 -13 0 -34 -9 -47 -19
-22 -18 -24 -27 -23 -99 2 -136 58 -228 172 -284 l67 -33 2037 -3 2037 -2 7
-46 c31 -211 -117 -397 -346 -433 -87 -14 -3087 -15 -3185 -1 -89 13 -181 58
-241 118 -46 45 -104 149 -104 185 0 24 -44 67 -68 67 -32 0 -72 -38 -72 -69
0 -41 36 -137 71 -192 46 -73 144 -158 225 -196 139 -66 71 -64 1825 -60 1453
2 1589 4 1639 19 188 59 317 179 377 351 21 59 24 85 21 164 -3 102 -8 95 67
108 79 14 159 76 203 159 25 48 27 59 27 186 0 128 -2 139 -27 188 -25 49 -26
54 -13 87 20 46 18 81 -5 134 l-20 44 23 36 c33 50 47 96 47 150 0 49 -35 136
-63 160 -23 18 -21 35 7 84 126 217 86 479 -103 666 -186 184 -447 322 -720
381 -272 59 -600 40 -854 -50 l-78 -28 -102 33 c-327 106 -685 106 -996 0
l-69 -23 -83 28 c-110 37 -218 58 -359 70 -125 11 -132 11 -267 0z m386 -157
c145 -23 144 -20 34 -92 -117 -78 -239 -192 -294 -275 -32 -49 -39 -69 -37
-101 2 -31 9 -43 30 -54 42 -24 76 -6 115 62 89 152 343 328 593 411 234 77
533 91 771 35 49 -11 89 -22 89 -24 0 -2 -39 -29 -87 -62 -167 -111 -303 -272
-303 -359 0 -38 27 -64 65 -64 37 0 53 16 88 86 66 130 327 309 570 388 226
74 516 90 746 41 248 -52 492 -179 656 -340 146 -143 178 -307 96 -480 -56
-118 -160 -205 -296 -248 l-70 -22 -1840 0 c-2019 0 -1889 -4 -2016 62 -187
97 -287 306 -234 489 24 85 56 133 138 211 298 283 740 408 1186 336z m-1229
-1118 c55 -40 132 -76 216 -101 51 -15 125 -18 519 -23 l460 -6 -30 -28 c-106
-99 -351 -167 -600 -167 -348 0 -662 132 -658 276 1 28 27 84 40 84 3 0 27
-16 53 -35z m4374 1 c29 -62 15 -108 -50 -166 -241 -212 -947 -211 -1189 1
l-38 34 454 5 c322 4 470 10 509 19 65 16 201 78 249 115 19 14 38 26 42 26 4
0 14 -15 23 -34z m-2915 -268 c84 -75 235 -141 405 -174 113 -22 339 -29 463
-15 286 33 531 154 593 293 l17 39 31 -54 c75 -133 272 -231 545 -271 58 -9
132 -16 166 -16 33 0 61 -4 61 -9 0 -14 -99 -110 -130 -126 -88 -45 -176 -36
-268 28 -91 63 -157 69 -249 26 -24 -12 -57 -38 -74 -60 -17 -22 -52 -52 -77
-67 -39 -23 -58 -27 -117 -27 -78 1 -104 11 -179 73 -57 47 -119 67 -177 58
-55 -9 -88 -27 -151 -82 -64 -57 -102 -74 -170 -74 -67 0 -118 24 -191 87 -65
57 -125 79 -188 69 -52 -8 -83 -24 -143 -74 -111 -92 -238 -80 -346 33 -100
104 -209 120 -315 46 -72 -50 -105 -63 -166 -63 -78 0 -136 29 -200 100 l-50
57 53 2 c192 9 387 52 515 114 95 45 191 128 218 189 l18 40 28 -48 c15 -27
50 -69 78 -94z m1286 106 c-176 -156 -629 -212 -955 -117 -99 29 -206 82 -245
124 l-29 29 635 0 634 -1 -40 -35z m-2752 -186 c23 -11 76 -34 117 -49 72 -27
74 -28 35 -28 -53 -1 -148 22 -180 43 -14 9 -25 25 -25 36 0 25 1 25 53 -2z
m4361 13 c22 -35 -71 -80 -177 -87 l-72 -5 75 29 c41 15 93 38 115 50 46 24
52 25 59 13z"/>
</g>
</svg>
