<?xml version="1.0" standalone="no"?>
<!DOCTYPE svg PUBLIC "-//W3C//DTD SVG 20010904//EN"
 "http://www.w3.org/TR/2001/REC-SVG-20010904/DTD/svg10.dtd">
<svg version="1.0" xmlns="http://www.w3.org/2000/svg"
 width="512.000000pt" height="512.000000pt" viewBox="0 0 512.000000 512.000000"
 preserveAspectRatio="xMidYMid meet">
<metadata>
Created by potrace 1.16, written by Peter Selinger 2001-2019
</metadata>
<g transform="translate(0.000000,512.000000) scale(0.100000,-0.100000)"
fill="#000000" stroke="none">
<path d="M2370 5114 c-19 -2 -78 -9 -130 -15 -791 -90 -1522 -586 -1924 -1305
-146 -262 -252 -588 -297 -914 -18 -125 -18 -515 0 -640 105 -762 511 -1409
1146 -1826 609 -400 1377 -517 2090 -317 929 260 1646 1043 1819 1987 156 845
-103 1682 -705 2285 -399 398 -879 639 -1449 726 -100 15 -472 28 -550 19z
m395 -304 c498 -46 977 -263 1348 -610 303 -284 542 -695 640 -1101 49 -201
61 -309 61 -539 0 -230 -12 -338 -61 -539 -78 -325 -246 -653 -471 -921 -296
-354 -732 -624 -1183 -733 -201 -49 -309 -61 -539 -61 -231 0 -338 12 -540 61
-396 96 -810 334 -1087 626 -456 480 -682 1125 -623 1772 54 583 345 1143 790
1518 464 390 1069 582 1665 527z M2375 4509 c-852 -81 -1565 -725 -1734 -1567
-101 -506 4 -1032 293 -1467 241 -362 596 -633 1007 -769 450 -150 906 -136
1351 39 519 206 943 657 1122 1196 193 580 111 1195 -228 1704 -400 600 -1095
932 -1811 864z m450 -314 c715 -118 1263 -676 1376 -1400 7 -44 13 -150 13
-235 0 -277 -51 -493 -177 -745 -330 -664 -1077 -1027 -1807 -879 -112 23
-300 88 -403 140 -494 249 -823 701 -908 1249 -16 103 -16 367 0 470 83 524
388 964 844 1216 211 116 385 169 677 203 64 8 293 -4 385 -19z M2269 3827
c-121 -81 -65 -271 80 -271 80 0 151 68 151 144 0 44 -35 108 -73 130 -45 28
-115 26 -158 -3z M2533 3294 c-72 -36 -99 -141 -55 -215 35 -57 62 -148 62
-206 0 -54 -1 -56 -72 -134 -99 -109 -168 -211 -238 -354 -64 -129 -150 -375
-150 -428 0 -112 131 -186 227 -127 41 25 49 40 99 192 55 164 115 292 145
309 16 9 62 14 131 14 115 0 137 8 181 67 39 52 18 154 -40 196 -28 20 -28 21
-8 36 11 9 49 27 85 41 84 32 104 46 124 89 21 46 20 81 -5 133 -27 56 -83 87
-144 81 l-41 -5 -27 87 c-65 203 -159 280 -274 224z M3629 2987 c-121 -81 -65
-271 80 -271 80 0 151 68 151 144 0 44 -35 108 -73 130 -45 28 -115 26 -158
-3z M1520 2859 c-75 -44 -98 -116 -61 -191 23 -49 80 -88 127 -88 38 0 105 35
128 66 47 66 21 171 -53 212 -48 27 -96 28 -141 1z M2875 1803 c-32 -8 -84
-51 -100 -83 -21 -40 -19 -83 5 -131 73 -142 293 -79 277 80 -9 89 -99 155
-182 134z"/>
</g>
</svg>
