<?xml version="1.0" standalone="no"?>
<!DOCTYPE svg PUBLIC "-//W3C//DTD SVG 20010904//EN"
 "http://www.w3.org/TR/2001/REC-SVG-20010904/DTD/svg10.dtd">
<svg version="1.0" xmlns="http://www.w3.org/2000/svg"
 width="512.000000pt" height="512.000000pt" viewBox="0 0 512.000000 512.000000"
 preserveAspectRatio="xMidYMid meet">
<metadata>
Created by potrace 1.16, written by Peter Selinger 2001-2019
</metadata>
<g transform="translate(0.000000,512.000000) scale(0.100000,-0.100000)"
fill="#000000" stroke="none">
<path d="M1264 4856 c-59 -27 -116 -90 -132 -145 -7 -21 -12 -100 -12 -175 l0
-136 -96 0 c-53 0 -115 -5 -138 -12 -55 -16 -138 -99 -154 -154 -15 -52 -16
-254 0 -305 27 -93 134 -169 238 -169 l56 0 46 -427 47 -427 -26 -30 c-34 -41
-53 -87 -53 -132 0 -20 39 -264 86 -543 70 -413 90 -514 110 -551 22 -41 30
-95 88 -632 56 -510 67 -593 87 -632 27 -55 59 -87 119 -118 l45 -23 964 -3
c1100 -3 1037 -7 1121 78 36 35 53 62 64 101 8 30 42 309 76 621 57 524 63
571 86 612 21 37 39 129 109 548 47 277 85 520 85 541 0 45 -18 92 -52 132
l-26 30 46 428 46 427 50 0 c79 0 126 19 181 75 64 63 75 100 75 245 0 145
-11 182 -75 245 -61 62 -101 75 -229 75 l-96 0 0 143 c0 121 -3 149 -21 187
-27 60 -64 98 -124 126 l-50 24 -1245 0 -1245 0 -51 -24z m2551 -161 c24 -23
25 -29 25 -160 l0 -135 -164 0 c-158 0 -166 -1 -192 -23 -37 -33 -37 -81 0
-114 l27 -23 340 0 340 0 24 -25 c24 -23 25 -31 25 -135 0 -104 -1 -112 -25
-135 l-24 -25 -1115 0 -1115 0 -27 -23 c-20 -17 -27 -33 -27 -57 0 -24 7 -40
27 -57 l27 -23 985 0 c780 0 984 -3 984 -12 0 -7 -19 -187 -42 -400 l-42 -388
-1285 0 -1286 0 -43 388 c-23 213 -42 393 -42 400 0 9 43 12 181 12 l181 0 29
29 c31 32 35 50 17 84 -24 46 -27 46 -356 47 l-313 0 -24 25 c-24 23 -25 31
-25 135 0 104 1 112 25 135 l24 25 1106 0 1106 0 24 25 c16 15 25 36 25 55 0
19 -9 40 -25 55 l-24 25 -931 0 -930 0 0 135 c0 131 1 137 25 160 l24 25 1231
0 1231 0 24 -25z m73 -1915 c21 -13 32 -28 32 -42 0 -13 -38 -245 -84 -516
-74 -436 -86 -496 -107 -518 l-22 -24 -1147 0 -1147 0 -23 25 c-20 22 -32 79
-106 522 -46 274 -84 506 -84 516 0 9 15 26 33 37 31 20 54 20 1327 20 1273 0
1296 0 1328 -20z m-202 -1302 c-3 -24 -29 -257 -56 -518 -28 -261 -56 -488
-62 -503 -23 -59 19 -57 -1008 -57 -1049 0 -990 -4 -1010 68 -5 20 -33 246
-60 502 -28 256 -53 484 -56 508 l-6 42 1132 0 1132 0 -6 -42z M2533 2686
c-123 -31 -223 -103 -296 -214 -134 -201 -126 -444 19 -589 109 -108 274 -128
429 -52 82 40 145 97 198 177 58 88 86 167 94 261 10 135 -26 241 -112 327
-82 83 -217 120 -332 90z m23 -178 c-9 -13 -29 -48 -44 -78 -23 -47 -27 -72
-32 -175 -6 -134 -15 -157 -78 -219 l-41 -39 -20 34 c-49 80 -52 196 -7 295
32 69 105 147 169 179 63 31 74 32 53 3z m236 -80 c18 -35 23 -59 23 -128 0
-103 -27 -171 -101 -250 -41 -44 -147 -110 -159 -98 -2 2 7 22 22 43 43 63 63
145 63 252 0 79 4 101 21 129 20 33 86 94 101 94 4 0 18 -19 30 -42z"/>
</g>
</svg>
